G04 ================== begin FILE IDENTIFICATION RECORD ==================*
G04 Layout Name:  C:/Users/user/Desktop/orcad work/AVRUSB500/allegro/AVRUSB500.brd*
G04 Film Name:    BOTTOM*
G04 File Format:  Gerber RS274X*
G04 File Origin:  Cadence Allegro 17.2-P019*
G04 Origin Date:  Mon Jul 29 17:16:03 2019*
G04 *
G04 Layer:  ETCH/BOTTOM*
G04 Layer:  PIN/BOTTOM*
G04 Layer:  VIA CLASS/BOTTOM*
G04 *
G04 Offset:    (0.000 0.000)*
G04 Mirror:    No*
G04 Mode:      Positive*
G04 Rotation:  0*
G04 FullContactRelief:  No*
G04 UndefLineWidth:     0.000*
G04 ================== end FILE IDENTIFICATION RECORD ====================*
%FSLAX55Y55*MOMM*%
%IR0*IPPOS*OFA0.00000B0.00000*MIA0B0*SFA1.00000B1.00000*%
%ADD13C,1.321*%
%ADD16R,1.321X1.321*%
%ADD14C,1.575*%
%ADD15R,1.575X1.575*%
%ADD11O,1.9X1.2*%
%ADD12C,.61*%
%ADD10C,.635*%
%ADD17C,.254*%
%ADD18C,.382*%
%ADD20C,1.58*%
%ADD21C,1.834*%
%ADD19R,5.084X5.084*%
G75*
%LPD*%
G75*
G36*
G01X300100Y300100D02*
Y4199900D01*
X317300D01*
Y3682800D01*
X825700D01*
Y4199900D01*
X9185800D01*
Y3685800D01*
X9699900D01*
Y814200D01*
X9185800D01*
Y300100D01*
X300100D01*
G37*
%LPC*%
G75*
G36*
G01X4861400Y1508800D02*
Y1666200D01*
G02X4874200Y1679200I12900J100D01*
G01X5031800D01*
G02X5044600Y1666200I-100J-12900D01*
G01Y1508800D01*
G02X5031800Y1495800I-12900J-100D01*
G01X4874200D01*
G02X4861400Y1508800I100J12900D01*
G37*
G36*
G01X727000Y3487600D02*
G02Y3633400I0J72900D01*
G01X797000D01*
G02Y3487600I0J-72900D01*
G01X727000D01*
G37*
G36*
G01X1097000D02*
G02Y3633400I0J72900D01*
G01X1167000D01*
G02Y3487600I0J-72900D01*
G01X1097000D01*
G37*
G36*
G01X727000Y2462600D02*
G02Y2608400I0J72900D01*
G01X797000D01*
G02Y2462600I0J-72900D01*
G01X727000D01*
G37*
G36*
G01X1097000D02*
G02Y2608400I0J72900D01*
G01X1167000D01*
G02Y2462600I0J-72900D01*
G01X1097000D01*
G37*
G36*
G01X6363300Y3842000D02*
X6443300Y3762000D01*
X6543000D01*
G02X6556000Y3749000I50J-12950D01*
G01Y3715000D01*
X7096600D01*
Y3749000D01*
G02X7109400Y3762000I12900J100D01*
G01X7241600D01*
G02X7254400Y3749000I-100J-12900D01*
G01Y3617000D01*
G02X7241600Y3604000I-12900J-100D01*
G01X7207500D01*
Y3569300D01*
X7252300Y3524500D01*
X8353900D01*
X8413500Y3584100D01*
Y3604000D01*
X8379400D01*
G02X8366600Y3617000I100J12900D01*
G01Y3749000D01*
G02X8379400Y3762000I12900J100D01*
G01X8511600D01*
G02X8524400Y3749000I-100J-12900D01*
G01Y3617000D01*
G02X8511600Y3604000I-12900J-100D01*
G01X8477500D01*
Y3557500D01*
X8380500Y3460500D01*
X7225700D01*
X7143500Y3542700D01*
Y3604000D01*
X7109400D01*
G02X7096600Y3617000I100J12900D01*
G01Y3651000D01*
X6556000D01*
Y3617000D01*
G02X6543000Y3604000I-12950J-50D01*
G01X6411000D01*
G02X6398000Y3617000I-50J12950D01*
G01Y3716700D01*
X6336700Y3778000D01*
X5934800D01*
G02Y3842000I-29300J32000D01*
G01X6363300D01*
G37*
G36*
G01X5831400Y3022400D02*
X5625900Y3227900D01*
Y3667600D01*
X5585400D01*
G02X5572600Y3680400I50J12850D01*
G01Y3812600D01*
G02X5585400Y3825400I12850J-50D01*
G01X5717600D01*
G02X5730400Y3812600I-50J-12850D01*
G01Y3680400D01*
G02X5717600Y3667600I-12850J50D01*
G01X5677100D01*
Y3249100D01*
X5852600Y3073600D01*
X6970200D01*
X7010600Y3033200D01*
Y2042600D01*
X7041800Y2011400D01*
X7044200Y2011700D01*
G02X7005300Y1972800I4300J-43200D01*
G01X7005600Y1975200D01*
X6959400Y2021400D01*
Y3012000D01*
X6949000Y3022400D01*
X5831400D01*
G37*
G36*
G01X6527200Y1682500D02*
X6417100Y1792600D01*
Y2063500D01*
X6373400D01*
X6257000Y2179900D01*
Y2513200D01*
G02X6321000I32000J29300D01*
G01Y2206500D01*
X6400000Y2127500D01*
X6419800D01*
G02X6481100Y2066200I29300J-32000D01*
G01Y1819200D01*
X6553800Y1746500D01*
X7019200D01*
G02Y1682500I29300J-32000D01*
G01X6527200D01*
G37*
G36*
G01X2762500Y1791300D02*
Y1553300D01*
G02X2698500I-32000J-29300D01*
G01Y1764700D01*
X2653700Y1809500D01*
X2525600D01*
X2511600Y1823500D01*
X2491800D01*
G02X2433200I-29300J32000D01*
G01X2131700D01*
X2000000Y1955200D01*
Y3188300D01*
X2145700Y3334000D01*
X2764700D01*
G02Y3270000I29300J-32000D01*
G01X2172300D01*
X2064000Y3161700D01*
Y1981800D01*
X2158300Y1887500D01*
X2433200D01*
G02X2491800I29300J-32000D01*
G01X2666300D01*
X2680300Y1873500D01*
X2717200D01*
X2825500Y1981800D01*
Y2066200D01*
G02X2889500I32000J29300D01*
G01Y1955200D01*
X2744000Y1809800D01*
X2762500Y1791300D01*
G37*
G36*
G01X8038900Y1703900D02*
X7926900Y1815900D01*
X6910900D01*
X6832400Y1894400D01*
Y2783400D01*
X6783900Y2831900D01*
X6614600D01*
X6554700Y2772000D01*
Y2638500D01*
G02X6503500I-25600J-35000D01*
G01Y2793200D01*
X6593400Y2883100D01*
X6805100D01*
X6883600Y2804600D01*
Y1915600D01*
X6932100Y1867100D01*
X7948100D01*
X8090100Y1725100D01*
Y1178000D01*
G02Y1108000I-25600J-35000D01*
G01Y1026600D01*
X8202100Y914600D01*
X8752400D01*
X8864400Y1026600D01*
Y2652200D01*
X8904800Y2692600D01*
X9233400D01*
X9239100Y2686900D01*
G03X9255700Y2690100I7221J7199D01*
G02X9253000Y2624900I84291J-36146D01*
G01X9251900Y2628400D01*
X9225200D01*
X9212200Y2641400D01*
X8926000D01*
X8915600Y2631000D01*
Y1005400D01*
X8773600Y863400D01*
X8180900D01*
X8038900Y1005400D01*
Y1108000D01*
G02Y1178000I25600J35000D01*
G01Y1703900D01*
G37*
G36*
G01X9133400Y926900D02*
X8991400Y1068900D01*
Y2398200D01*
X9031800Y2438600D01*
X9218100D01*
X9231100Y2425600D01*
X9248400D01*
Y2478800D01*
G02X9261200Y2491600I12850J-50D01*
G01X9418800D01*
G02X9431600Y2478800I-50J-12850D01*
G01Y2321200D01*
G02X9418800Y2308400I-12850J50D01*
G01X9261200D01*
G02X9248400Y2321200I50J12850D01*
G01Y2374400D01*
X9209900D01*
X9196900Y2387400D01*
X9053000D01*
X9042600Y2377000D01*
Y1090100D01*
X9154600Y978100D01*
X9306400D01*
Y1031200D01*
G02X9319200Y1044200I12900J100D01*
G01X9476800D01*
G02X9489600Y1031200I-100J-12900D01*
G01Y873800D01*
G02X9476800Y860800I-12900J-100D01*
G01X9319200D01*
G02X9306400Y873800I100J12900D01*
G01Y926900D01*
X9133400D01*
G37*
G36*
G01X6006200Y1609900D02*
G02X5934000Y1561900I-37202J-22342D01*
G01X5513900D01*
X5371900Y1703900D01*
Y1830900D01*
X5259900Y1942900D01*
X4998400D01*
G03X4993900Y1923600I61J-10189D01*
G02X4912100I-40900J-82100D01*
G03X4907600Y1942900I-4561J9111D01*
G01X3354900D01*
X3276400Y2021400D01*
Y2060500D01*
G02X3327600I25600J35000D01*
G01Y2042600D01*
X3376100Y1994100D01*
X4907600D01*
G03X4912100Y2013400I-61J10189D01*
G02X4993900I40900J82100D01*
G03X4998400Y1994100I4561J-9111D01*
G01X5281100D01*
X5423100Y1852100D01*
Y1725100D01*
X5535100Y1613100D01*
X5934000D01*
G02X5937000Y1616900I35516J-24954D01*
G03X5933300Y1625400I-3756J3420D01*
G01X5577400D01*
X5435400Y1767400D01*
Y2338900D01*
X5323400Y2450900D01*
X4998400D01*
G03X4993900Y2431600I61J-10189D01*
G02X4912100I-40900J-82100D01*
G03X4907600Y2450900I-4561J9111D01*
G01X3058600D01*
X3016400Y2408700D01*
Y2136800D01*
G02X2965200I-25600J-35000D01*
G01Y2429900D01*
X3037400Y2502100D01*
X4907600D01*
G03X4912100Y2521400I-61J10189D01*
G02X4993900I40900J82100D01*
G03X4998400Y2502100I4561J-9111D01*
G01X5344600D01*
X5486600Y2360100D01*
Y1788600D01*
X5598600Y1676600D01*
X6060000D01*
X6103400Y1720000D01*
Y2002100D01*
G02X6154600I25600J35000D01*
G01Y1698800D01*
X6081200Y1625400D01*
X6014900D01*
G03X6006200Y1609900I-4J-10189D01*
G37*
G54D20*
X2476500Y2794000D03*
X3238500D03*
X5334000Y3746500D03*
X6413500Y571500D03*
Y1333500D03*
X6223000Y3683000D03*
X7429500D03*
X8191500D03*
G54D21*
X9398000Y1714500D03*
Y1460500D03*
Y1206500D03*
Y1968500D03*
X9340000Y2908000D03*
Y3162000D03*
Y3416000D03*
G54D19*
X698500Y635000D03*
%LPD*%
G75*
G54D10*
X698500Y635000D03*
X571500Y3937000D03*
X9440000Y560000D03*
Y3940000D03*
G54D11*
X1132000Y2535500D03*
X762000D03*
X1132000Y3560500D03*
X762000D03*
G54D12*
X2462500Y1855500D03*
X2730500Y1524000D03*
X2857500Y2095500D03*
X3302000D03*
X2990800Y2101800D03*
X2794000Y3302000D03*
X5969000Y1587500D03*
X6129000Y2603400D03*
Y2037100D03*
X6449100Y2095500D03*
X6289000Y2542500D03*
X5905500Y3810000D03*
X7048500Y1714500D03*
Y1968500D03*
X6529100Y2603500D03*
X8064500Y1143000D03*
G54D13*
X2476500Y2794000D03*
X3238500D03*
X5334000Y3746500D03*
X6413500Y571500D03*
Y1333500D03*
X6223000Y3683000D03*
X7429500D03*
X8191500D03*
G54D14*
X4953000Y1841500D03*
Y2603500D03*
Y2349500D03*
Y2095500D03*
X9398000Y1714500D03*
Y1460500D03*
Y1206500D03*
X9340000Y2654000D03*
X9398000Y1968500D03*
X9340000Y2908000D03*
Y3162000D03*
Y3416000D03*
G54D15*
X4953000Y1587500D03*
X9398000Y952500D03*
X9340000Y2400000D03*
G54D16*
X5651500Y3746500D03*
X6477000Y3683000D03*
X7175500D03*
X8445500D03*
G54D17*
G01X5969000Y1587500D02*
X5524500D01*
X5397500Y1714500D01*
Y1841500D01*
X5270500Y1968500D01*
X3365500D01*
X3302000Y2032000D01*
Y2095500D01*
G01X6129000Y2037100D02*
Y1709400D01*
X6070600Y1651000D01*
X5588000D01*
X5461000Y1778000D01*
Y2349500D01*
X5334000Y2476500D01*
X3048000D01*
X2990800Y2419300D01*
Y2101800D01*
G01X5651500Y3746500D02*
Y3238500D01*
X5842000Y3048000D01*
X6959600D01*
X6985000Y3022600D01*
Y2032000D01*
X7048500Y1968500D01*
G01X6529100Y2603500D02*
Y2782600D01*
X6604000Y2857500D01*
X6794500D01*
X6858000Y2794000D01*
Y1905000D01*
X6921500Y1841500D01*
X7937500D01*
X8064500Y1714500D01*
Y1143000D01*
G01X9340000Y2654000D02*
X9235800D01*
X9222800Y2667000D01*
X8915400D01*
X8890000Y2641600D01*
Y1016000D01*
X8763000Y889000D01*
X8191500D01*
X8064500Y1016000D01*
Y1143000D01*
G01X9340000Y2400000D02*
X9220500D01*
X9207500Y2413000D01*
X9042400D01*
X9017000Y2387600D01*
Y1079500D01*
X9144000Y952500D01*
X9398000D01*
G54D18*
G01X2730500Y1524000D02*
Y1778000D01*
X2653000Y1855500D01*
X2524900D01*
G01D02*
X2462500D01*
G01X2524900D02*
X2538900Y1841500D01*
X2730500D01*
X2857500Y1968500D01*
Y2095500D01*
G01X2462500Y1855500D02*
X2145000D01*
X2032000Y1968500D01*
Y3175000D01*
X2159000Y3302000D01*
X2794000D01*
G01X4856200Y2603500D02*
X4953000D01*
G01D02*
X5049800D01*
G01X4953000Y2880200D02*
Y2603500D01*
G01X6129000Y2603400D02*
Y2824600D01*
X5971700Y2981900D01*
X5054700D01*
X4953000Y2880200D01*
G01X6449100Y2095500D02*
Y1805900D01*
X6540500Y1714500D01*
X7048500D01*
G01X6289000Y2542500D02*
Y2193200D01*
X6386700Y2095500D01*
X6449100D01*
G01X6223000Y3683000D02*
X6307100D01*
G01X6138900D02*
X6223000D01*
G01Y3598900D02*
Y3683000D01*
G01X5905500Y3810000D02*
X6350000D01*
X6477000Y3683000D01*
G01X8445500D02*
Y3570800D01*
X8367200Y3492500D01*
X7239000D01*
X7175500Y3556000D01*
Y3683000D01*
G01X6477000D02*
X7175500D01*
G01X7429500D02*
X7513600D01*
G01X7345400D02*
X7429500D01*
G01D02*
Y3767100D01*
G01Y3598900D02*
Y3683000D01*
G01X8191500D02*
X8275600D01*
G01X8107400D02*
X8191500D01*
G01D02*
Y3767100D01*
G01Y3598900D02*
Y3683000D01*
G01X9398000Y1871700D02*
Y1968500D01*
G01D02*
X9494800D01*
G01X9301200D02*
X9398000D01*
G01D02*
Y2065300D01*
G01X9340000Y3319200D02*
Y3416000D01*
G01D02*
X9436800D01*
G01X9243200D02*
X9340000D01*
G01D02*
Y3512800D01*
M02*
