G04 ================== begin FILE IDENTIFICATION RECORD ==================*
G04 Layout Name:  C:/Users/user/Desktop/orcad work/AVRUSB500/allegro/AVRUSB500.brd*
G04 Film Name:    SilkT*
G04 File Format:  Gerber RS274X*
G04 File Origin:  Cadence Allegro 17.2-P019*
G04 Origin Date:  Mon Jul 29 17:16:03 2019*
G04 *
G04 Layer:  REF DES/SILKSCREEN_TOP*
G04 Layer:  PACKAGE GEOMETRY/SILKSCREEN_TOP*
G04 Layer:  BOARD GEOMETRY/SILKSCREEN_TOP*
G04 *
G04 Offset:    (0.000 0.000)*
G04 Mirror:    No*
G04 Mode:      Positive*
G04 Rotation:  0*
G04 FullContactRelief:  No*
G04 UndefLineWidth:     0.200*
G04 ================== end FILE IDENTIFICATION RECORD ====================*
%FSLAX55Y55*MOMM*%
%IR0*IPPOS*OFA0.00000B0.00000*MIA0B0*SFA1.00000B1.00000*%
%ADD10C,.203*%
%ADD11C,.2*%
%ADD12C,.152*%
%ADD13C,.254*%
G75*
%LPD*%
G75*
G54D10*
G01X3429000Y2540000D02*
X2286000D01*
G01D02*
Y3048000D01*
G01D02*
X3429000D01*
G01D02*
Y2540000D01*
G01X4826000Y1447800D02*
Y2743200D01*
G01X5080000Y1447800D02*
X4826000D01*
G01Y2743200D02*
X5080000D01*
G01Y1587500D02*
Y1447800D01*
G01Y1841500D02*
Y1587500D01*
G01Y2095500D02*
Y1841500D01*
G01Y2349500D02*
Y2095500D01*
G01Y2603500D02*
Y2349500D01*
G01Y2743200D02*
Y2603500D01*
G01X5810200Y3746500D02*
G02X5492800Y3429000I-317400J-100D01*
G02Y4064000I0J317500D01*
G02X5810200Y3746500I0J-317400D01*
G01X6667500Y381000D02*
X6159500D01*
G01D02*
Y1524000D01*
G01D02*
X6667500D01*
G01X6635700Y3683000D02*
G02I-285700J0D01*
G01X6667500Y1524000D02*
Y381000D01*
G01X7588200Y3683000D02*
G02I-285700J0D01*
G01X8604200D02*
G02I-285700J0D01*
G01X9271000Y812800D02*
Y2108200D01*
G01X9525000Y812800D02*
X9271000D01*
G01X9467000Y2654000D02*
Y2400000D01*
G01D02*
Y2260300D01*
G01D02*
X9213000D01*
G01D02*
Y3555700D01*
G01X9271000Y2108200D02*
X9525000D01*
G01X9467000Y3416000D02*
Y3162000D01*
G01D02*
Y2908000D01*
G01D02*
Y2654000D01*
G01Y3555700D02*
Y3416000D01*
G01X9213000Y3555700D02*
X9467000D01*
G01X9525000Y952500D02*
Y812800D01*
G01Y1206500D02*
Y952500D01*
G01Y1460500D02*
Y1206500D01*
G01Y1714500D02*
Y1460500D01*
G01Y1968500D02*
Y1714500D01*
G01Y2108200D02*
Y1968500D01*
G54D11*
G01X341200Y952500D02*
Y1143000D01*
X400400D01*
X419400Y1133500D01*
X431300Y1120800D01*
X436000Y1095400D01*
X431300Y1070000D01*
X417000Y1054100D01*
X400400Y1044600D01*
X341200D01*
G01X400400D02*
X436000Y952500D01*
G01X579100D02*
X595700Y955700D01*
X614600Y965200D01*
X626500Y981100D01*
X631200Y1003300D01*
X626500Y1025500D01*
X612300Y1044600D01*
X590900Y1054100D01*
X567300D01*
X553000Y1060500D01*
X541200Y1076300D01*
X536400Y1098500D01*
X543600Y1120800D01*
X560100Y1136700D01*
X579100Y1143000D01*
X598100Y1136700D01*
X614600Y1120800D01*
X621800Y1098500D01*
X617000Y1076300D01*
X605200Y1060500D01*
X590900Y1054100D01*
X567300D01*
X545900Y1044600D01*
X531700Y1025500D01*
X527000Y1003300D01*
X531700Y981100D01*
X543600Y965200D01*
X562500Y955700D01*
X579100Y952500D01*
G01X453000Y1160800D02*
Y1351300D01*
X512200D01*
X531200Y1341800D01*
X543100Y1329100D01*
X547800Y1303700D01*
X543100Y1278300D01*
X528800Y1262400D01*
X512200Y1252900D01*
X453000D01*
G01X512200D02*
X547800Y1160800D01*
G01X638800Y1189400D02*
X653000Y1173500D01*
X669600Y1164000D01*
X690900Y1160800D01*
X712200Y1167100D01*
X728800Y1179800D01*
X740700Y1202100D01*
X743000Y1227500D01*
X738300Y1252900D01*
X726400Y1268800D01*
X709900Y1281400D01*
X693300Y1284600D01*
X676700Y1281400D01*
X655400Y1268800D01*
X662500Y1351300D01*
X726400D01*
G01X453000Y1668800D02*
Y1859300D01*
X512200D01*
X531200Y1849800D01*
X543100Y1837100D01*
X547800Y1811700D01*
X543100Y1786300D01*
X528800Y1770400D01*
X512200Y1760900D01*
X453000D01*
G01X512200D02*
X547800Y1668800D01*
G01X645900Y1748200D02*
X662500Y1770400D01*
X676700Y1783100D01*
X695600Y1789400D01*
X712200Y1783100D01*
X724100Y1770400D01*
X733600Y1751300D01*
X735900Y1729100D01*
X733600Y1710100D01*
X724100Y1691000D01*
X709900Y1675100D01*
X693300Y1668800D01*
X674300Y1675100D01*
X657700Y1694200D01*
X648200Y1722800D01*
X645900Y1754500D01*
X650600Y1795800D01*
X657700Y1818000D01*
X669600Y1840200D01*
X686200Y1856100D01*
X702700Y1859300D01*
X719300Y1853000D01*
X731200Y1837100D01*
G01X1335400Y1416000D02*
X1345000Y1430200D01*
X1351300Y1446800D01*
Y1465700D01*
X1341800Y1487100D01*
X1325900Y1503600D01*
X1306800Y1515500D01*
X1275100Y1525000D01*
X1246500Y1527400D01*
X1217900Y1522600D01*
X1198900Y1515500D01*
X1179800Y1501300D01*
X1167100Y1484700D01*
X1160800Y1468100D01*
Y1451500D01*
X1167100Y1434900D01*
X1176700Y1420700D01*
X1189400Y1408800D01*
G01X1160800Y1249200D02*
X1351300D01*
X1214800Y1336900D01*
Y1218300D01*
G01X2014200Y1850000D02*
X1823700D01*
Y1909200D01*
X1833200Y1928200D01*
X1845900Y1940100D01*
X1871300Y1944800D01*
X1896700Y1940100D01*
X1912600Y1925800D01*
X1922100Y1909200D01*
Y1850000D01*
G01Y1909200D02*
X2014200Y1944800D01*
G01Y2083200D02*
X1972900Y2087900D01*
X1938000Y2095000D01*
X1906200Y2104500D01*
X1871300Y2116300D01*
X1823700Y2135300D01*
Y2040500D01*
G01X1843400Y3956000D02*
X1853000Y3970200D01*
X1859300Y3986800D01*
Y4005700D01*
X1849800Y4027100D01*
X1833900Y4043600D01*
X1814800Y4055500D01*
X1783100Y4065000D01*
X1754500Y4067400D01*
X1725900Y4062600D01*
X1706900Y4055500D01*
X1687800Y4041300D01*
X1675100Y4024700D01*
X1668800Y4008100D01*
Y3991500D01*
X1675100Y3974900D01*
X1684700Y3960700D01*
X1697400Y3948800D01*
G01X1668800Y3817600D02*
X1859300D01*
X1821200Y3846000D01*
G01X1668800D02*
Y3789200D01*
G01X2372600Y2728600D02*
X2281600D01*
X2262500Y2722200D01*
X2249800Y2709300D01*
X2245600Y2693300D01*
X2249800Y2677200D01*
X2262500Y2664300D01*
X2281600Y2657900D01*
X2372600D01*
G01X2245600Y2563800D02*
X2372600D01*
X2347200Y2583100D01*
G01X2245600D02*
Y2544500D01*
G01X2646500Y3059100D02*
Y3116200D01*
X2614400Y3186100D01*
G01X2678700D02*
X2646500Y3116200D01*
G01X2745500Y3164900D02*
X2755100Y3177600D01*
X2766400Y3184000D01*
X2779300Y3186100D01*
X2795400Y3181900D01*
X2806600Y3171300D01*
X2809800Y3158600D01*
X2808200Y3145900D01*
X2801800Y3135300D01*
X2769600Y3114100D01*
X2755100Y3099300D01*
X2745500Y3078100D01*
X2742300Y3059100D01*
X2809800D01*
G01X2367300Y4055500D02*
X2557800D01*
Y3996300D01*
X2548300Y3977300D01*
X2535600Y3965400D01*
X2510200Y3960700D01*
X2484800Y3965400D01*
X2468900Y3979700D01*
X2459400Y3996300D01*
Y4055500D01*
G01Y3996300D02*
X2367300Y3960700D01*
G01Y3817600D02*
X2557800D01*
X2519700Y3846000D01*
G01X2367300D02*
Y3789200D01*
G01X3240400Y3956000D02*
X3250000Y3970200D01*
X3256300Y3986800D01*
Y4005700D01*
X3246800Y4027100D01*
X3230900Y4043600D01*
X3211800Y4055500D01*
X3180100Y4065000D01*
X3151500Y4067400D01*
X3122900Y4062600D01*
X3103900Y4055500D01*
X3084800Y4041300D01*
X3072100Y4024700D01*
X3065800Y4008100D01*
Y3991500D01*
X3072100Y3974900D01*
X3081700Y3960700D01*
X3094400Y3948800D01*
G01X3224600Y3862600D02*
X3243600Y3848400D01*
X3253100Y3831800D01*
X3256300Y3812900D01*
X3250000Y3789200D01*
X3234100Y3772600D01*
X3215000Y3767800D01*
X3196000Y3770200D01*
X3180100Y3779700D01*
X3148300Y3827100D01*
X3126100Y3848400D01*
X3094400Y3862600D01*
X3065800Y3867400D01*
Y3767800D01*
G01X3945500Y398800D02*
Y589300D01*
X4004700D01*
X4023700Y579800D01*
X4035600Y567100D01*
X4040300Y541700D01*
X4035600Y516300D01*
X4021300Y500400D01*
X4004700Y490900D01*
X3945500D01*
G01X4004700D02*
X4040300Y398800D01*
G01X4183400D02*
Y589300D01*
X4155000Y551200D01*
G01Y398800D02*
X4211800D01*
G01X4402300D02*
Y589300D01*
X4314600Y452800D01*
X4433200D01*
G01X3945500Y1097300D02*
Y1287800D01*
X4004700D01*
X4023700Y1278300D01*
X4035600Y1265600D01*
X4040300Y1240200D01*
X4035600Y1214800D01*
X4021300Y1198900D01*
X4004700Y1189400D01*
X3945500D01*
G01X4004700D02*
X4040300Y1097300D01*
G01X4211800D02*
Y1287800D01*
X4124100Y1151300D01*
X4242700D01*
G01X3945500Y1795800D02*
Y1986300D01*
X4004700D01*
X4023700Y1976800D01*
X4035600Y1964100D01*
X4040300Y1938700D01*
X4035600Y1913300D01*
X4021300Y1897400D01*
X4004700Y1887900D01*
X3945500D01*
G01X4004700D02*
X4040300Y1795800D01*
G01X4131300Y1833900D02*
X4145500Y1811700D01*
X4164400Y1799000D01*
X4185800Y1795800D01*
X4204700Y1799000D01*
X4223700Y1814800D01*
X4235500Y1833900D01*
X4237900Y1852900D01*
X4233200Y1875200D01*
X4216600Y1891000D01*
X4200000Y1897400D01*
X4178700D01*
G01X4200000D02*
X4214200Y1906900D01*
X4226100Y1922800D01*
X4230800Y1941800D01*
X4226100Y1960900D01*
X4214200Y1976800D01*
X4192900Y1986300D01*
X4171600Y1983100D01*
X4150200Y1970400D01*
G01X3945500Y2494300D02*
Y2684800D01*
X4004700D01*
X4023700Y2675300D01*
X4035600Y2662600D01*
X4040300Y2637200D01*
X4035600Y2611800D01*
X4021300Y2595900D01*
X4004700Y2586400D01*
X3945500D01*
G01X4004700D02*
X4040300Y2494300D01*
G01X4138400Y2653100D02*
X4152600Y2672100D01*
X4169200Y2681600D01*
X4188100Y2684800D01*
X4211800Y2678500D01*
X4228400Y2662600D01*
X4233200Y2643500D01*
X4230800Y2624500D01*
X4221300Y2608600D01*
X4173900Y2576800D01*
X4152600Y2554600D01*
X4138400Y2522900D01*
X4133600Y2494300D01*
X4233200D01*
G01X3875400Y3956000D02*
X3885000Y3970200D01*
X3891300Y3986800D01*
Y4005700D01*
X3881800Y4027100D01*
X3865900Y4043600D01*
X3846800Y4055500D01*
X3815100Y4065000D01*
X3786500Y4067400D01*
X3757900Y4062600D01*
X3738900Y4055500D01*
X3719800Y4041300D01*
X3707100Y4024700D01*
X3700800Y4008100D01*
Y3991500D01*
X3707100Y3974900D01*
X3716700Y3960700D01*
X3729400Y3948800D01*
G01X3738900Y3869700D02*
X3716700Y3855500D01*
X3704000Y3836600D01*
X3700800Y3815200D01*
X3704000Y3796300D01*
X3719800Y3777300D01*
X3738900Y3765500D01*
X3757900Y3763100D01*
X3780200Y3767800D01*
X3796000Y3784400D01*
X3802400Y3801000D01*
Y3822300D01*
G01Y3801000D02*
X3811900Y3786800D01*
X3827800Y3774900D01*
X3846800Y3770200D01*
X3865900Y3774900D01*
X3881800Y3786800D01*
X3891300Y3808100D01*
X3888100Y3829400D01*
X3875400Y3850800D01*
G01X5040100Y1398400D02*
X5032100Y1411100D01*
X5022400Y1419600D01*
X5011200Y1423800D01*
X4998300Y1419600D01*
X4988600Y1411100D01*
X4979000Y1398400D01*
X4975800Y1381500D01*
Y1296800D01*
G01X4878500Y1423800D02*
Y1296800D01*
X4897800Y1322200D01*
G01Y1423800D02*
X4859200D01*
G01X4573900Y3956000D02*
X4583500Y3970200D01*
X4589800Y3986800D01*
Y4005700D01*
X4580300Y4027100D01*
X4564400Y4043600D01*
X4545300Y4055500D01*
X4513600Y4065000D01*
X4485000Y4067400D01*
X4456400Y4062600D01*
X4437400Y4055500D01*
X4418300Y4041300D01*
X4405600Y4024700D01*
X4399300Y4008100D01*
Y3991500D01*
X4405600Y3974900D01*
X4415200Y3960700D01*
X4427900Y3948800D01*
G01X4399300Y3817600D02*
X4589800D01*
X4551700Y3846000D01*
G01X4399300D02*
Y3789200D01*
G01X4589800Y3627100D02*
X4583500Y3646100D01*
X4567600Y3660300D01*
X4548500Y3669800D01*
X4523100Y3676900D01*
X4494500Y3679200D01*
X4466000Y3676900D01*
X4440600Y3669800D01*
X4421500Y3660300D01*
X4405600Y3646100D01*
X4399300Y3627100D01*
X4405600Y3608100D01*
X4421500Y3593900D01*
X4440600Y3584400D01*
X4466000Y3577300D01*
X4494500Y3575000D01*
X4523100Y3577300D01*
X4548500Y3584400D01*
X4567600Y3593900D01*
X4583500Y3608100D01*
X4589800Y3627100D01*
G01X5378500Y446400D02*
X5364300Y456000D01*
X5347700Y462300D01*
X5328800D01*
X5307400Y452800D01*
X5290900Y436900D01*
X5279000Y417800D01*
X5269500Y386100D01*
X5267100Y357500D01*
X5271900Y328900D01*
X5279000Y309900D01*
X5293200Y290800D01*
X5309800Y278100D01*
X5326400Y271800D01*
X5343000D01*
X5359600Y278100D01*
X5373800Y287700D01*
X5385700Y300400D01*
G01X5516900Y271800D02*
X5533500Y275000D01*
X5552400Y284500D01*
X5564300Y300400D01*
X5569000Y322600D01*
X5564300Y344800D01*
X5550100Y363900D01*
X5528700Y373400D01*
X5505100D01*
X5490800Y379800D01*
X5479000Y395600D01*
X5474200Y417800D01*
X5481400Y440100D01*
X5497900Y456000D01*
X5516900Y462300D01*
X5535900Y456000D01*
X5552400Y440100D01*
X5559600Y417800D01*
X5554800Y395600D01*
X5543000Y379800D01*
X5528700Y373400D01*
X5505100D01*
X5483700Y363900D01*
X5469500Y344800D01*
X5464800Y322600D01*
X5469500Y300400D01*
X5481400Y284500D01*
X5500300Y275000D01*
X5516900Y271800D01*
G01X5315000Y1081400D02*
X5300800Y1091000D01*
X5284200Y1097300D01*
X5265300D01*
X5243900Y1087800D01*
X5227400Y1071900D01*
X5215500Y1052800D01*
X5206000Y1021100D01*
X5203600Y992500D01*
X5208400Y963900D01*
X5215500Y944900D01*
X5229700Y925800D01*
X5246300Y913100D01*
X5262900Y906800D01*
X5279500D01*
X5296100Y913100D01*
X5310300Y922700D01*
X5322200Y935400D01*
G01X5448700Y906800D02*
X5453400Y948100D01*
X5460500Y983000D01*
X5470000Y1014800D01*
X5481800Y1049700D01*
X5500800Y1097300D01*
X5406000D01*
G01X5351900Y1991600D02*
X5390500D01*
G01X5371200D02*
Y1864600D01*
G01X5351900D02*
X5390500D01*
G01X5536100Y1981000D02*
X5526500Y1987400D01*
X5515200Y1991600D01*
X5502400D01*
X5487900Y1985200D01*
X5476600Y1974700D01*
X5468600Y1962000D01*
X5462100Y1940800D01*
X5460500Y1921700D01*
X5463800Y1902700D01*
X5468600Y1890000D01*
X5478200Y1877300D01*
X5489500Y1868800D01*
X5500700Y1864600D01*
X5512000D01*
X5523300Y1868800D01*
X5532900Y1875200D01*
X5541000Y1883600D01*
G01X5630200Y1864600D02*
Y1991600D01*
X5610900Y1966200D01*
G01Y1864600D02*
X5649500D01*
G01X5675600Y3449600D02*
Y3322600D01*
X5643500D01*
X5630600Y3329000D01*
X5620900Y3337400D01*
X5612900Y3350100D01*
X5606500Y3364900D01*
X5604900Y3386100D01*
X5606500Y3407300D01*
X5612900Y3422100D01*
X5620900Y3434800D01*
X5630600Y3443300D01*
X5643500Y3449600D01*
X5675600D01*
G01X5510800D02*
Y3322600D01*
X5530100Y3348000D01*
G01Y3449600D02*
X5491500D01*
G01X6148400Y741500D02*
X6091300D01*
X6021400Y709400D01*
G01Y773700D02*
X6091300Y741500D01*
G01X6148400Y871000D02*
X6021400D01*
X6046800Y851700D01*
G01X6148400D02*
Y890300D01*
G01X6525600Y3269700D02*
X6535200Y3263300D01*
X6546500Y3259100D01*
X6559300D01*
X6573800Y3265500D01*
X6585100Y3276000D01*
X6593100Y3288700D01*
X6599600Y3309900D01*
X6601200Y3329000D01*
X6597900Y3348000D01*
X6593100Y3360700D01*
X6583500Y3373400D01*
X6572200Y3381900D01*
X6561000Y3386100D01*
X6549700D01*
X6538400Y3381900D01*
X6528800Y3375500D01*
X6520700Y3367100D01*
G01X6466800D02*
X6457200Y3377600D01*
X6445900Y3384000D01*
X6431500Y3386100D01*
X6417000Y3381900D01*
X6405700Y3373400D01*
X6397700Y3358600D01*
X6396100Y3341700D01*
X6399300Y3324700D01*
X6407300Y3314100D01*
X6418600Y3305700D01*
X6429800Y3303600D01*
X6441100Y3305700D01*
X6455600Y3314100D01*
X6450800Y3259100D01*
X6407300D01*
G01X6866500Y398800D02*
Y589300D01*
X6925700D01*
X6944700Y579800D01*
X6956600Y567100D01*
X6961300Y541700D01*
X6956600Y516300D01*
X6942300Y500400D01*
X6925700Y490900D01*
X6866500D01*
G01X6925700D02*
X6961300Y398800D01*
G01X7064100Y421000D02*
X7080700Y405100D01*
X7099700Y398800D01*
X7118600Y405100D01*
X7135200Y424200D01*
X7147100Y452800D01*
X7151800Y481300D01*
Y516300D01*
X7147100Y544800D01*
X7135200Y570200D01*
X7121000Y583000D01*
X7104400Y589300D01*
X7085400Y583000D01*
X7071200Y570200D01*
X7061700Y551200D01*
X7057000Y525800D01*
X7061700Y503600D01*
X7073600Y481300D01*
X7087800Y468600D01*
X7104400Y465500D01*
X7123400Y471800D01*
X7137600Y487700D01*
X7151800Y516300D01*
G01X6939300Y2087000D02*
X7129800D01*
Y2027800D01*
X7120300Y2008800D01*
X7107600Y1996900D01*
X7082200Y1992200D01*
X7056800Y1996900D01*
X7040900Y2011200D01*
X7031400Y2027800D01*
Y2087000D01*
G01Y2027800D02*
X6939300Y1992200D01*
G01Y1849100D02*
X7129800D01*
X7091700Y1877500D01*
G01X6939300D02*
Y1820700D01*
G01X7129800Y1658600D02*
X7123500Y1677600D01*
X7107600Y1691800D01*
X7088500Y1701300D01*
X7063100Y1708400D01*
X7034500Y1710700D01*
X7006000Y1708400D01*
X6980600Y1701300D01*
X6961500Y1691800D01*
X6945600Y1677600D01*
X6939300Y1658600D01*
X6945600Y1639600D01*
X6961500Y1625400D01*
X6980600Y1615900D01*
X7006000Y1608800D01*
X7034500Y1606500D01*
X7063100Y1608800D01*
X7088500Y1615900D01*
X7107600Y1625400D01*
X7123500Y1639600D01*
X7129800Y1658600D01*
G01X6939300Y3230000D02*
X7129800D01*
Y3170800D01*
X7120300Y3151800D01*
X7107600Y3139900D01*
X7082200Y3135200D01*
X7056800Y3139900D01*
X7040900Y3154200D01*
X7031400Y3170800D01*
Y3230000D01*
G01Y3170800D02*
X6939300Y3135200D01*
G01Y2992100D02*
X7129800D01*
X7091700Y3020500D01*
G01X6939300D02*
Y2963700D01*
G01X7098100Y2846600D02*
X7117100Y2832400D01*
X7126600Y2815800D01*
X7129800Y2796900D01*
X7123500Y2773200D01*
X7107600Y2756600D01*
X7088500Y2751800D01*
X7069500Y2754200D01*
X7053600Y2763700D01*
X7021800Y2811100D01*
X6999600Y2832400D01*
X6967900Y2846600D01*
X6939300Y2851400D01*
Y2751800D01*
G01X7126900Y4096300D02*
X7117300Y4102700D01*
X7106000Y4106900D01*
X7093200D01*
X7078700Y4100500D01*
X7067400Y4090000D01*
X7059400Y4077300D01*
X7052900Y4056100D01*
X7051300Y4037000D01*
X7054600Y4018000D01*
X7059400Y4005300D01*
X7069000Y3992600D01*
X7080300Y3984100D01*
X7091500Y3979900D01*
X7102800D01*
X7114100Y3984100D01*
X7123700Y3990500D01*
X7131800Y3998900D01*
G01X7193700Y3994700D02*
X7205000Y3984100D01*
X7217800Y3979900D01*
X7230700Y3984100D01*
X7242000Y3996800D01*
X7250000Y4015900D01*
X7253200Y4034900D01*
Y4058200D01*
X7250000Y4077300D01*
X7242000Y4094200D01*
X7232300Y4102700D01*
X7221000Y4106900D01*
X7208200Y4102700D01*
X7198500Y4094200D01*
X7192100Y4081500D01*
X7188900Y4064600D01*
X7192100Y4049800D01*
X7200100Y4034900D01*
X7209800Y4026500D01*
X7221000Y4024300D01*
X7233900Y4028600D01*
X7243600Y4039200D01*
X7253200Y4058200D01*
G01X7946000Y970300D02*
Y1160800D01*
X8005200D01*
X8024200Y1151300D01*
X8036100Y1138600D01*
X8040800Y1113200D01*
X8036100Y1087800D01*
X8021800Y1071900D01*
X8005200Y1062400D01*
X7946000D01*
G01X8005200D02*
X8040800Y970300D01*
G01X8183900D02*
Y1160800D01*
X8155500Y1122700D01*
G01Y970300D02*
X8212300D01*
G01X8322300Y1008400D02*
X8336500Y986200D01*
X8355400Y973500D01*
X8376800Y970300D01*
X8395700Y973500D01*
X8414700Y989300D01*
X8426500Y1008400D01*
X8428900Y1027400D01*
X8424200Y1049700D01*
X8407600Y1065500D01*
X8391000Y1071900D01*
X8369700D01*
G01X8391000D02*
X8405200Y1081400D01*
X8417100Y1097300D01*
X8421800Y1116300D01*
X8417100Y1135400D01*
X8405200Y1151300D01*
X8383900Y1160800D01*
X8362600Y1157600D01*
X8341200Y1144900D01*
G01X7946000Y1732300D02*
Y1922800D01*
X8005200D01*
X8024200Y1913300D01*
X8036100Y1900600D01*
X8040800Y1875200D01*
X8036100Y1849800D01*
X8021800Y1833900D01*
X8005200Y1824400D01*
X7946000D01*
G01X8005200D02*
X8040800Y1732300D01*
G01X8183900D02*
Y1922800D01*
X8155500Y1884700D01*
G01Y1732300D02*
X8212300D01*
G01X8322300Y1760900D02*
X8336500Y1745000D01*
X8353100Y1735500D01*
X8374400Y1732300D01*
X8395700Y1738600D01*
X8412300Y1751300D01*
X8424200Y1773600D01*
X8426500Y1799000D01*
X8421800Y1824400D01*
X8409900Y1840300D01*
X8393400Y1852900D01*
X8376800Y1856100D01*
X8360200Y1852900D01*
X8338900Y1840300D01*
X8346000Y1922800D01*
X8409900D01*
G01X7946000Y2367300D02*
Y2557800D01*
X8005200D01*
X8024200Y2548300D01*
X8036100Y2535600D01*
X8040800Y2510200D01*
X8036100Y2484800D01*
X8021800Y2468900D01*
X8005200Y2459400D01*
X7946000D01*
G01X8005200D02*
X8040800Y2367300D01*
G01X8183900D02*
Y2557800D01*
X8155500Y2519700D01*
G01Y2367300D02*
X8212300D01*
G01X8374400D02*
Y2557800D01*
X8346000Y2519700D01*
G01Y2367300D02*
X8402800D01*
G01X8494100Y3269700D02*
X8503700Y3263300D01*
X8515000Y3259100D01*
X8527800D01*
X8542300Y3265500D01*
X8553600Y3276000D01*
X8561600Y3288700D01*
X8568100Y3309900D01*
X8569700Y3329000D01*
X8566400Y3348000D01*
X8561600Y3360700D01*
X8552000Y3373400D01*
X8540700Y3381900D01*
X8529500Y3386100D01*
X8518200D01*
X8506900Y3381900D01*
X8497300Y3375500D01*
X8489200Y3367100D01*
G01X8430500Y3333200D02*
X8419300Y3318400D01*
X8409600Y3309900D01*
X8396700Y3305700D01*
X8385500Y3309900D01*
X8377400Y3318400D01*
X8371000Y3331100D01*
X8369400Y3345900D01*
X8371000Y3358600D01*
X8377400Y3371300D01*
X8387100Y3381900D01*
X8398300Y3386100D01*
X8411200Y3381900D01*
X8422500Y3369200D01*
X8428900Y3350100D01*
X8430500Y3329000D01*
X8427300Y3301400D01*
X8422500Y3286600D01*
X8414400Y3271800D01*
X8403200Y3261200D01*
X8391900Y3259100D01*
X8380600Y3263300D01*
X8372600Y3273900D01*
G01X9485100Y763400D02*
X9477100Y776100D01*
X9467400Y784600D01*
X9456200Y788800D01*
X9443300Y784600D01*
X9433600Y776100D01*
X9424000Y763400D01*
X9420800Y746500D01*
Y661800D01*
G01X9358800Y763400D02*
X9349200Y778200D01*
X9336300Y786700D01*
X9321800Y788800D01*
X9309000Y786700D01*
X9296100Y776100D01*
X9288100Y763400D01*
X9286500Y750700D01*
X9289700Y735900D01*
X9300900Y725300D01*
X9312200Y721100D01*
X9326700D01*
G01X9312200D02*
X9302500Y714700D01*
X9294500Y704100D01*
X9291300Y691400D01*
X9294500Y678700D01*
X9302500Y668200D01*
X9317000Y661800D01*
X9331500Y663900D01*
X9346000Y672400D01*
G01X9427100Y2210900D02*
X9419100Y2223600D01*
X9409400Y2232100D01*
X9398200Y2236300D01*
X9385300Y2232100D01*
X9375600Y2223600D01*
X9366000Y2210900D01*
X9362800Y2194000D01*
Y2109300D01*
G01X9246100Y2236300D02*
Y2109300D01*
X9305700Y2200300D01*
X9225200D01*
G54D12*
G01X436900Y876300D02*
Y1282700D01*
G01X1132800Y876300D02*
X436900D01*
G01Y1384300D02*
Y1790700D01*
G01D02*
X1132800D01*
G01Y1384300D02*
X436900D01*
G01Y1282700D02*
X1132800D01*
G01X436900Y1892300D02*
Y2298700D01*
G01D02*
X1132800D01*
G01Y1892300D02*
X436900D01*
G01X1132800Y1282700D02*
Y876300D01*
G01X1790700Y1531600D02*
Y835700D01*
G01D02*
X1384300D01*
G01D02*
Y1531600D01*
G01X1132800Y1790700D02*
Y1384300D01*
G01X1384300Y1531600D02*
X1790700D01*
G01Y1833900D02*
X1384300D01*
G01D02*
Y2529800D01*
G01X1790700D02*
Y1833900D01*
G01X1384300Y2529800D02*
X1790700D01*
G01X1132800Y2298700D02*
Y1892300D01*
G01X2298700Y4071600D02*
Y3375700D01*
G01D02*
X1892300D01*
G01D02*
Y4071600D01*
G01X2997200Y3375700D02*
X2590800D01*
G01D02*
Y4071600D01*
G01X1892300D02*
X2298700D01*
G01X2590800D02*
X2997200D01*
G01D02*
Y3375700D01*
G01X3695700D02*
X3289300D01*
G01D02*
Y4071600D01*
G01D02*
X3695700D01*
G01X3929400Y622300D02*
Y1028700D01*
G01D02*
X4625300D01*
G01Y622300D02*
X3929400D01*
G01Y1320800D02*
Y1727200D01*
G01D02*
X4625300D01*
G01Y1320800D02*
X3929400D01*
G01Y2019300D02*
Y2425700D01*
G01D02*
X4625300D01*
G01Y2019300D02*
X3929400D01*
G01X3695700Y4071600D02*
Y3375700D01*
G01X4330700D02*
X3924300D01*
G01D02*
Y4071600D01*
G01X3929400Y2717800D02*
Y3124200D01*
G01D02*
X4625300D01*
G01Y2717800D02*
X3929400D01*
G01X3924300Y4071600D02*
X4330700D01*
G01X4625300Y1028700D02*
Y622300D01*
G01Y1727200D02*
Y1320800D01*
G01Y2425700D02*
Y2019300D01*
G01X4330700Y4071600D02*
Y3375700D01*
G01X4625300Y3124200D02*
Y2717800D01*
G01X5029200Y3375700D02*
X4622800D01*
G01D02*
Y4071600D01*
G01D02*
X5029200D01*
G01X5262900Y495300D02*
Y901700D01*
G01D02*
X5958800D01*
G01Y495300D02*
X5262900D01*
G01X5199400Y1130300D02*
Y1536700D01*
G01D02*
X5895300D01*
G01Y1130300D02*
X5199400D01*
G01X5029200Y4071600D02*
Y3375700D01*
G01X5958800Y901700D02*
Y495300D01*
G01X5895300Y1536700D02*
Y1130300D01*
G01X6850400Y622300D02*
Y1028700D01*
G01D02*
X7546300D01*
G01Y622300D02*
X6850400D01*
G01X7569200Y1407200D02*
X7162800D01*
G01D02*
Y2103100D01*
G01D02*
X7569200D01*
G01Y2550200D02*
X7162800D01*
G01D02*
Y3246100D01*
G01D02*
X7569200D01*
G01X7546300Y1028700D02*
Y622300D01*
G01X7929900Y1193800D02*
Y1600200D01*
G01D02*
X8625800D01*
G01Y1193800D02*
X7929900D01*
G01X7569200Y2103100D02*
Y1407200D01*
G01X7929900Y1955800D02*
Y2362200D01*
G01D02*
X8625800D01*
G01Y1955800D02*
X7929900D01*
G01Y2590800D02*
Y2997200D01*
G01X8625800Y2590800D02*
X7929900D01*
G01X7569200Y3246100D02*
Y2550200D01*
G01X7929900Y2997200D02*
X8625800D01*
G01Y1600200D02*
Y1193800D01*
G01Y2362200D02*
Y1955800D01*
G01Y2997200D02*
Y2590800D01*
G54D13*
G01X2218700Y2164800D02*
X2361400D01*
G01X5899700Y1837700D02*
Y1980400D01*
M02*
