G04 ================== begin FILE IDENTIFICATION RECORD ==================*
G04 Layout Name:  C:/Users/user/Desktop/orcad work/AVRUSB500/allegro/AVRUSB500.brd*
G04 Film Name:    SolderT*
G04 File Format:  Gerber RS274X*
G04 File Origin:  Cadence Allegro 17.2-P019*
G04 Origin Date:  Mon Jul 29 17:16:03 2019*
G04 *
G04 Layer:  VIA CLASS/SOLDERMASK_TOP*
G04 Layer:  PIN/SOLDERMASK_TOP*
G04 Layer:  PACKAGE GEOMETRY/SOLDERMASK_TOP*
G04 Layer:  BOARD GEOMETRY/SOLDERMASK_TOP*
G04 *
G04 Offset:    (0.000 0.000)*
G04 Mirror:    No*
G04 Mode:      Positive*
G04 Rotation:  0*
G04 FullContactRelief:  No*
G04 UndefLineWidth:     0.000*
G04 ================== end FILE IDENTIFICATION RECORD ====================*
%FSLAX55Y55*MOMM*%
%IR0*IPPOS*OFA0.00000B0.00000*MIA0B0*SFA1.00000B1.00000*%
%ADD14R,1.9X.4*%
%ADD21C,1.321*%
%ADD16C,1.118*%
%ADD24R,1.321X1.321*%
%ADD22C,1.575*%
%ADD10C,3.683*%
%ADD23R,1.575X1.575*%
%ADD18O,.457X1.778*%
%ADD17O,1.778X.457*%
%ADD19R,.457X1.778*%
%ADD20R,1.778X.457*%
%ADD12O,1.9X1.2*%
%ADD13R,1.9X1.1*%
%ADD11R,1.499X2.845*%
%ADD15R,2.845X1.499*%
%LPD*%
G75*
G54D10*
X698500Y635000D03*
X571500Y3937000D03*
X9440000Y560000D03*
Y3940000D03*
G54D11*
X571500Y1079500D03*
X998200D03*
X571500Y1587500D03*
X998200D03*
X571500Y2095500D03*
X998200D03*
X4064000Y825500D03*
Y1524000D03*
Y2222500D03*
Y2921000D03*
X4490700Y825500D03*
Y1524000D03*
Y2222500D03*
Y2921000D03*
X5397500Y698500D03*
X5334000Y1333500D03*
X5824200Y698500D03*
X5760700Y1333500D03*
X6985000Y825500D03*
X7411700D03*
X8064500Y1397000D03*
X8491200D03*
X8064500Y2159000D03*
X8491200D03*
X8064500Y2794000D03*
X8491200D03*
G54D20*
X2286000Y2095500D03*
X3135600Y1775500D03*
X5824200Y2209800D03*
X6673800Y2129800D03*
G54D12*
X1132000Y2535500D03*
X762000D03*
X1132000Y3560500D03*
X762000D03*
G54D21*
X2476500Y2794000D03*
X3238500D03*
X5334000Y3746500D03*
X6413500Y571500D03*
Y1333500D03*
X6223000Y3683000D03*
X7429500D03*
X8191500D03*
G54D13*
X1132000Y2818000D03*
Y3278000D03*
G54D22*
X4953000Y1841500D03*
Y2603500D03*
Y2349500D03*
Y2095500D03*
X9398000Y1714500D03*
Y1460500D03*
Y1206500D03*
X9340000Y2654000D03*
X9398000Y1968500D03*
X9340000Y2908000D03*
Y3162000D03*
Y3416000D03*
G54D23*
X4953000Y1587500D03*
X9398000Y952500D03*
X9340000Y2400000D03*
G54D14*
X1132000Y2918000D03*
Y2983000D03*
Y3048000D03*
Y3113000D03*
Y3178000D03*
G54D15*
X1587500Y970300D03*
Y1397000D03*
Y1968500D03*
Y2395200D03*
X2095500Y3937000D03*
Y3510300D03*
X2794000Y3937000D03*
Y3510300D03*
X3492500Y3937000D03*
Y3510300D03*
X4127500Y3937000D03*
Y3510300D03*
X4826000Y3937000D03*
Y3510300D03*
X7366000Y1541800D03*
Y1968500D03*
Y2684800D03*
Y3111500D03*
G54D24*
X5651500Y3746500D03*
X6477000Y3683000D03*
X7175500D03*
X8445500D03*
G54D16*
X2462500Y1855500D03*
X2730500Y1524000D03*
X2857500Y2095500D03*
X3302000D03*
X2990800Y2101800D03*
X2794000Y3302000D03*
X5969000Y1587500D03*
X6129000Y2603400D03*
Y2037100D03*
X6449100Y2095500D03*
X6289000Y2542500D03*
X5905500Y3810000D03*
X7048500Y1714500D03*
Y1968500D03*
X6529100Y2603500D03*
X8064500Y1143000D03*
G54D17*
X2286000Y1855500D03*
Y1775500D03*
Y1695500D03*
Y1615400D03*
Y1535400D03*
Y2015500D03*
Y1935500D03*
X3135600Y1535400D03*
Y1615400D03*
Y1695500D03*
Y1855500D03*
Y1935500D03*
Y2015500D03*
Y2095500D03*
X5824200Y2609800D03*
Y2529800D03*
Y2449800D03*
Y2369800D03*
Y2289800D03*
Y2129800D03*
Y2049800D03*
X6673800D03*
Y2209800D03*
Y2289800D03*
Y2369800D03*
Y2449800D03*
Y2529800D03*
Y2609800D03*
G54D18*
X2430800Y1390700D03*
X2590800D03*
X2510800Y2240300D03*
X2430800D03*
X2670800Y1390700D03*
X2750800D03*
X2830800D03*
X2910800D03*
X2990800D03*
Y2240300D03*
X2910800D03*
X2830800D03*
X2750800D03*
X2670800D03*
X6049000Y1905000D03*
X6129000D03*
X6209000D03*
X6289000D03*
X6369000D03*
X6449100D03*
Y2754600D03*
X6369000D03*
X6209000D03*
X6129000D03*
X6049000D03*
X5969000D03*
X6529100Y1905000D03*
Y2754600D03*
G54D19*
X2510800Y1390700D03*
X2590800Y2240300D03*
X5969000Y1905000D03*
X6289000Y2754600D03*
M02*
